<svg width="60" height="28" preserveAspectRatio="none" xmlns="http://www.w3.org/2000/svg"><path stroke="none" fill="#E8F0FE" fill-opacity="1" d="M4.00 25.00 L4.00 13.41  L4.00 13.41 L7.71 16.20 L11.43 16.17 L15.14 15.38 L18.86 17.11 L22.57 11.53 L26.29 8.47 L30.00 10.93 L33.71 9.41 L37.43 9.62 L41.14 14.30 L44.86 7.07 L48.57 9.76 L52.29 4.00  L52.29 25.00 " /><path stroke="#4285F4" stroke-width="1" fill="none" d="M4.00 13.41  L4.00 13.41 L7.71 16.20 L11.43 16.17 L15.14 15.38 L18.86 17.11 L22.57 11.53 L26.29 8.47 L30.00 10.93 L33.71 9.41 L37.43 9.62 L41.14 14.30 L44.86 7.07 L48.57 9.76 L52.29 4.00 " /></svg>